HIERARCHY
ROOT Hips
{
    OFFSET   0.000000   0.000000   0.000000
    CHANNELS 6 Xposition Yposition Zposition Zrotation Xrotation Yrotation
    JOINT Chest
    {
        OFFSET   0.000000   8.007240   0.000000
        CHANNELS 3 Zrotation Xrotation Yrotation
        JOINT Chest2
        {
            OFFSET   0.000000  22.077100   0.000000
            CHANNELS 3 Zrotation Xrotation Yrotation
            JOINT Neck
            {
                OFFSET   0.000000  23.254800   0.000000
                CHANNELS 3 Zrotation Xrotation Yrotation
                JOINT Head
                {
                    OFFSET   0.000000  14.370000   1.956600
                    CHANNELS 3 Zrotation Xrotation Yrotation
                    End Site
                    {
                        OFFSET   0.000000  19.566000   0.000000
                    }
                }
            }
            JOINT LeftCollar
            {
                OFFSET   3.911900  19.017000  -0.467064
                CHANNELS 3 Zrotation Xrotation Yrotation
                JOINT LeftShoulder
                {
                    OFFSET  10.383700   0.000000   0.000000
                    CHANNELS 3 Zrotation Xrotation Yrotation
                    JOINT LeftElbow
                    {
                        OFFSET  26.662100   0.001476   0.000517
                        CHANNELS 3 Zrotation Xrotation Yrotation
                        JOINT LeftWrist
                        {
                            OFFSET  28.869000  -0.000025  -0.000106
                            CHANNELS 3 Zrotation Xrotation Yrotation
                            JOINT LeftFinger0
                            {
                                OFFSET   2.044660  -2.323460   3.252850
                                CHANNELS 3 Zrotation Xrotation Yrotation
                                JOINT LeftFinger01
                                {
                                    OFFSET   3.088130   0.000000   0.000000
                                    CHANNELS 3 Zrotation Xrotation Yrotation
                                    JOINT LeftFinger02
                                    {
                                        OFFSET   2.639460   0.000000   0.000000
                                        CHANNELS 3 Zrotation Xrotation Yrotation
                                        End Site
                                        {
                                            OFFSET   2.582190   0.000000   0.000000
                                        }
                                    }
                                }
                            }
                            JOINT LeftFinger1
                            {
                                OFFSET   8.364480   0.000000   3.252850
                                CHANNELS 3 Zrotation Xrotation Yrotation
                                JOINT LeftFinger11
                                {
                                    OFFSET   4.646930   0.000000   0.000000
                                    CHANNELS 3 Zrotation Xrotation Yrotation
                                    JOINT LeftFinger12
                                    {
                                        OFFSET   2.323460   0.000000   0.000000
                                        CHANNELS 3 Zrotation Xrotation Yrotation
                                        End Site
                                        {
                                            OFFSET   2.273050   0.000000   0.000000
                                        }
                                    }
                                }
                            }
                            JOINT LeftFinger2
                            {
                                OFFSET   8.364490   0.000015   1.078090
                                CHANNELS 3 Zrotation Xrotation Yrotation
                                JOINT LeftFinger21
                                {
                                    OFFSET   5.111620   0.000000   0.000000
                                    CHANNELS 3 Zrotation Xrotation Yrotation
                                    JOINT LeftFinger22
                                    {
                                        OFFSET   2.788160   0.000016   0.000000
                                        CHANNELS 3 Zrotation Xrotation Yrotation
                                        End Site
                                        {
                                            OFFSET   2.727660   0.000000   0.000000
                                        }
                                    }
                                }
                            }
                            JOINT LeftFinger3
                            {
                                OFFSET   7.899780   0.000017  -1.078090
                                CHANNELS 3 Zrotation Xrotation Yrotation
                                JOINT LeftFinger31
                                {
                                    OFFSET   4.646930   0.000000   0.000000
                                    CHANNELS 3 Zrotation Xrotation Yrotation
                                    JOINT LeftFinger32
                                    {
                                        OFFSET   2.323470   0.000000   0.000000
                                        CHANNELS 3 Zrotation Xrotation Yrotation
                                        End Site
                                        {
                                            OFFSET   2.273050   0.000000   0.000000
                                        }
                                    }
                                }
                            }
                            JOINT LeftFinger4
                            {
                                OFFSET   7.435090   0.000000  -3.252850
                                CHANNELS 3 Zrotation Xrotation Yrotation
                                JOINT LeftFinger41
                                {
                                    OFFSET   3.717550   0.000000   0.000000
                                    CHANNELS 3 Zrotation Xrotation Yrotation
                                    JOINT LeftFinger42
                                    {
                                        OFFSET   1.858770   0.000000   0.000000
                                        CHANNELS 3 Zrotation Xrotation Yrotation
                                        End Site
                                        {
                                            OFFSET   1.818440   0.000000   0.000000
                                        }
                                    }
                                }
                            }
                        }
                    }
                }
            }
            JOINT RightCollar
            {
                OFFSET  -3.911900  19.017000  -0.467063
                CHANNELS 3 Zrotation Xrotation Yrotation
                JOINT RightShoulder
                {
                    OFFSET -10.383700   0.000019   0.000000
                    CHANNELS 3 Zrotation Xrotation Yrotation
                    JOINT RightElbow
                    {
                        OFFSET -26.662100   0.001175   0.000102
                        CHANNELS 3 Zrotation Xrotation Yrotation
                        JOINT RightWrist
                        {
                            OFFSET -28.869000   0.000016  -0.000079
                            CHANNELS 3 Zrotation Xrotation Yrotation
                            JOINT RightFinger0
                            {
                                OFFSET  -2.044660  -2.323490   3.252850
                                CHANNELS 3 Zrotation Xrotation Yrotation
                                JOINT RightFinger01
                                {
                                    OFFSET  -3.088140   0.000000   0.000000
                                    CHANNELS 3 Zrotation Xrotation Yrotation
                                    JOINT RightFinger02
                                    {
                                        OFFSET  -2.639460   0.000000   0.000000
                                        CHANNELS 3 Zrotation Xrotation Yrotation
                                        End Site
                                        {
                                            OFFSET  -2.582190   0.000000   0.000000
                                        }
                                    }
                                }
                            }
                            JOINT RightFinger1
                            {
                                OFFSET  -8.364480   0.000000   3.252850
                                CHANNELS 3 Zrotation Xrotation Yrotation
                                JOINT RightFinger11
                                {
                                    OFFSET  -4.646930   0.000000   0.000000
                                    CHANNELS 3 Zrotation Xrotation Yrotation
                                    JOINT RightFinger12
                                    {
                                        OFFSET  -2.323470   0.000000   0.000000
                                        CHANNELS 3 Zrotation Xrotation Yrotation
                                        End Site
                                        {
                                            OFFSET  -2.273050   0.000000   0.000000
                                        }
                                    }
                                }
                            }
                            JOINT RightFinger2
                            {
                                OFFSET  -8.364480   0.000000   1.078090
                                CHANNELS 3 Zrotation Xrotation Yrotation
                                JOINT RightFinger21
                                {
                                    OFFSET  -5.111620   0.000000   0.000000
                                    CHANNELS 3 Zrotation Xrotation Yrotation
                                    JOINT RightFinger22
                                    {
                                        OFFSET  -2.788160   0.000000   0.000000
                                        CHANNELS 3 Zrotation Xrotation Yrotation
                                        End Site
                                        {
                                            OFFSET  -2.727660   0.000000   0.000000
                                        }
                                    }
                                }
                            }
                            JOINT RightFinger3
                            {
                                OFFSET  -7.899780   0.000000  -1.078090
                                CHANNELS 3 Zrotation Xrotation Yrotation
                                JOINT RightFinger31
                                {
                                    OFFSET  -4.646930   0.000000   0.000000
                                    CHANNELS 3 Zrotation Xrotation Yrotation
                                    JOINT RightFinger32
                                    {
                                        OFFSET  -2.323470   0.000000   0.000000
                                        CHANNELS 3 Zrotation Xrotation Yrotation
                                        End Site
                                        {
                                            OFFSET  -2.273050   0.000000   0.000000
                                        }
                                    }
                                }
                            }
                            JOINT RightFinger4
                            {
                                OFFSET  -7.435090   0.000000  -3.252850
                                CHANNELS 3 Zrotation Xrotation Yrotation
                                JOINT RightFinger41
                                {
                                    OFFSET  -3.717550   0.000000   0.000000
                                    CHANNELS 3 Zrotation Xrotation Yrotation
                                    JOINT RightFinger42
                                    {
                                        OFFSET  -1.858770   0.000000   0.000000
                                        CHANNELS 3 Zrotation Xrotation Yrotation
                                        End Site
                                        {
                                            OFFSET  -1.818440   0.000000   0.000000
                                        }
                                    }
                                }
                            }
                        }
                    }
                }
            }
        }
    }
    JOINT LeftHip
    {
        OFFSET   9.783040   0.000000   0.000000
        CHANNELS 3 Zrotation Xrotation Yrotation
        JOINT LeftKnee
        {
            OFFSET   0.000032 -41.789100  -0.002222
            CHANNELS 3 Zrotation Xrotation Yrotation
            JOINT LeftAnkle
            {
                OFFSET   0.000087 -41.133200  -0.000135
                CHANNELS 3 Zrotation Xrotation Yrotation
                JOINT LeftToe
                {
                    OFFSET   0.000000  -6.358960  14.674500
                    CHANNELS 3 Zrotation Xrotation Yrotation
                    End Site
                    {
                        OFFSET   0.000000   0.000000   3.913200
                    }
                }
            }
        }
    }
    JOINT RightHip
    {
        OFFSET  -9.783040   0.000000   0.000000
        CHANNELS 3 Zrotation Xrotation Yrotation
        JOINT RightKnee
        {
            OFFSET   0.000047 -41.789100  -0.000896
            CHANNELS 3 Zrotation Xrotation Yrotation
            JOINT RightAnkle
            {
                OFFSET  -0.000117 -41.133300  -0.000248
                CHANNELS 3 Zrotation Xrotation Yrotation
                JOINT RightToe
                {
                    OFFSET   0.000000  -6.358970  14.674500
                    CHANNELS 3 Zrotation Xrotation Yrotation
                    End Site
                    {
                        OFFSET   0.000000   0.000000   3.913200
                    }
                }
            }
        }
    }
}
MOTION
Frames: 6
Frame Time:   0.016667
 -3.595990  89.294100  -8.923360  -2.469600  -9.986540  -3.060460   1.531410   4.717160  -0.291846   3.102830   9.424640  -0.714294   2.049630   0.746723  -0.028466   3.368530   1.508340  10.404700  -3.680680   4.164760  -2.968870 -56.380700 -46.204200 -36.286100  -3.713350 -21.918300 -106.277000 -26.390000 -38.824700 -23.660000  61.472600  62.806100 -100.082000 -51.756800  -0.001221  -0.001518 -27.810000  -0.001571  -0.004641 -88.946000   4.999490  -0.090409 -72.774300   0.000726  -0.000272 -54.580700   0.000028   0.005013 -79.712400   0.000559   0.001725 -79.712400   0.000783  -0.001940 -59.784300   0.000825   0.007315 -84.426100  -4.970800   0.483646 -84.447000   0.001739  -0.000854 -63.335300   0.000436   0.000403 -88.991900  -9.998030   0.174136 -110.000000  -0.005210   0.000518 -80.000000  -0.002788  -0.002887   3.472090  -2.445330   3.436530  34.963900 -32.533900  19.593200 -27.821100 -36.210700  80.202800  16.728200 -24.675900  30.671100 -25.354200  36.774800  64.666600  63.966400   0.000753  -0.001425  35.941600   0.003398   0.004460  88.996200   4.998960   0.087475  93.998400  -0.000171   0.003781  70.498800   0.003064   0.000135  89.000000   0.000695  -0.000226  99.358000  -0.002178  -0.006343  74.518500  -0.001869   0.003448  88.996300  -5.002820  -0.088880  91.086300   0.000986   0.001762  68.314600   0.000562  -0.000786  88.983800 -10.010900  -0.180521 110.000000  -0.006081  -0.000692  80.000000   0.000000   0.002131   4.544750  14.044100   1.227220   0.690145   1.002240  12.969200  -4.518280  -4.190220   1.931930  -0.000000   0.000000  -0.000000   2.458400  13.115500  -2.205140   0.304404   0.972503 -13.607900  -0.896439  -3.878160   0.879805  -0.000000   0.000000   0.000000
 -3.635620  89.294100  -8.923070  -2.457790  -9.946160  -3.026330   1.526060   4.694520  -0.291852   3.091820   9.379500  -0.713144   2.042610   0.721996  -0.027824   3.357180   1.458400  10.354100  -3.685050   4.151850  -2.989960 -56.305300 -46.221500 -36.242800  -3.677640 -21.863500 -106.293000 -26.441200 -38.738400 -23.699000  61.436500  62.808100 -100.063000 -51.772400  -0.001177  -0.001585 -27.820400  -0.001580  -0.004607 -88.935900   4.999450  -0.090218 -72.769700   0.000676  -0.000282 -54.577300   0.000066   0.005047 -79.702100   0.000498   0.001818 -79.702000   0.000744  -0.001873 -59.776600   0.000801   0.007339 -84.414400  -4.970370   0.483538 -84.435200   0.001717  -0.000875 -63.326400   0.000481   0.000375 -88.984900  -9.997860   0.174722 -110.000000  -0.005136   0.000526 -80.000000  -0.002722  -0.002898   3.465630  -2.444580   3.407040  34.950400 -32.565800  19.502600 -27.879800 -36.243700  80.246600  16.780300 -24.801500  30.711700 -25.477600  36.882200  64.817700  63.747700   0.000867  -0.001642  35.795900   0.003513   0.004404  88.996200   4.998970   0.087481  93.996500  -0.000247   0.003701  70.497400   0.003015   0.000191  89.000000   0.000747  -0.000184  99.421600  -0.002157  -0.006468  74.566200  -0.001879   0.003331  88.996200  -5.002860  -0.089078  91.150500   0.001046   0.001893  68.362800   0.000535  -0.000821  88.983800 -10.010900  -0.180643 110.000000  -0.006111  -0.000729  80.000000   0.000000   0.002138   4.573480  13.994700   1.236550   0.695252   1.002300  12.947800  -4.544280  -4.178960   1.909340   0.000000   0.000000   0.000000   2.470630  13.095000  -2.205110   0.327472   0.923384 -13.621800  -0.919566  -3.863770   0.868127  -0.000000   0.000000   0.000000
 -3.676260  89.294100  -8.922710  -2.444380  -9.903490  -2.994390   1.518840   4.668690  -0.291765   3.077060   9.327900  -0.712225   2.034560   0.708850  -0.027187   3.347380   1.431970  10.328200  -3.683170   4.145040  -2.986820 -56.273100 -46.258100 -36.216900  -3.638670 -21.788500 -106.319000 -26.479400 -38.648900 -23.746400  61.202400  62.771600 -99.897200 -51.811400  -0.001139  -0.001493 -27.846400  -0.001595  -0.004567 -88.949200   4.999400  -0.089840 -72.780500   0.000625  -0.000293 -54.585400   0.000077   0.005083 -79.713100   0.000438   0.001905 -79.713000   0.000706  -0.001808 -59.784900   0.000779   0.007360 -84.418000  -4.969940   0.483358 -84.438800   0.001694  -0.000896 -63.329100   0.000527   0.000349 -88.984900  -9.997690   0.175421 -110.000000  -0.005060   0.000534 -80.000000  -0.002654  -0.002909   3.461160  -2.443610   3.381310  34.944100 -32.587000  19.431600 -27.951800 -36.282500  80.291900  16.812600 -24.838300  30.706200 -25.614100  37.080100  65.003700  63.616000   0.000986  -0.001695  35.708200   0.003630   0.004341  88.996200   4.998980   0.087480  94.053000  -0.000321   0.003617  70.539800   0.002966   0.000242  89.000000   0.000797  -0.000145  99.525800  -0.002142  -0.006586  74.644400  -0.001897   0.003209  88.996200  -5.002900  -0.089273  91.211200   0.001102   0.002023  68.408400   0.000509  -0.000854  88.983800 -10.011000  -0.180760 110.000000  -0.006147  -0.000775  80.000000  -0.000028   0.002134   4.595640  13.943700   1.226130   0.708307   1.004820  12.946600  -4.573250  -4.167250   1.891960  -0.000000   0.000000   0.000000   2.486270  13.075100  -2.216760   0.348879   0.870602 -13.635800  -0.949082  -3.844290   0.865421   0.000000   0.000000  -0.000000
 -3.719820  89.293900  -8.922310  -2.431840  -9.861950  -2.964930   1.510340   4.642690  -0.291216   3.059560   9.276020  -0.709083   2.029910   0.700469  -0.026616   3.341280   1.415120  10.312900  -3.681370   4.136630  -2.983680 -56.242000 -46.294800 -36.187500  -3.602130 -21.722700 -106.359000 -26.522500 -38.527800 -23.798200  60.895600  62.718900 -99.649600 -51.866200  -0.001102  -0.001367 -27.882900  -0.001606  -0.004527 -88.966100   4.999350  -0.089473 -72.793700   0.000576  -0.000304 -54.595300   0.000083   0.005117 -79.728100   0.000377   0.001990 -79.728100   0.000670  -0.001744 -59.796100   0.000758   0.007379 -84.421500  -4.969520   0.483271 -84.442400   0.001671  -0.000919 -63.331800   0.000573   0.000325 -88.985000  -9.997510   0.176185 -110.000000  -0.004983   0.000538 -80.000000  -0.002588  -0.002920   3.458540  -2.443030   3.358970  34.940700 -32.602000  19.361300 -28.052400 -36.326600  80.338300  16.832000 -24.855400  30.695300 -25.696300  37.222000  65.118400  63.561500   0.001107  -0.001764  35.672000   0.003748   0.004275  88.996200   4.998990   0.087478  94.120400  -0.000395   0.003532  70.590300   0.002919   0.000288  89.000000   0.000845  -0.000103  99.596400  -0.002128  -0.006701  74.697400  -0.001909   0.003086  88.996200  -5.002930  -0.089467  91.247000   0.001158   0.002153  68.435300   0.000483  -0.000890  88.983800 -10.011000  -0.180876 110.000000  -0.006181  -0.000821  80.000000  -0.000072   0.002131   4.616110  13.894500   1.207440   0.725929   1.011420  12.946400  -4.604640  -4.157000   1.877260  -0.000000   0.000000  -0.000000   2.506130  13.052300  -2.237200   0.368863   0.825687 -13.643700  -0.980947  -3.832050   0.864495  -0.000000   0.000000   0.000000
 -3.768060  89.293700  -8.922120  -2.421140  -9.825200  -2.938770   1.500840   4.622170  -0.287760   3.039850   9.235150  -0.700121   2.029660   0.689086  -0.026122   3.340720   1.391980  10.301100  -3.691800   4.119160  -3.003900 -56.132100 -46.282100 -36.105300  -3.577260 -21.721300 -106.435000 -26.587300 -38.350100 -23.849500  60.712500  62.704800 -99.443200 -51.951800  -0.001061  -0.001333 -27.939900  -0.001599  -0.004491 -88.970400   4.999310  -0.089118 -72.796600   0.000531  -0.000316 -54.597400   0.000090   0.005147 -79.733200   0.000316   0.002072 -79.733200   0.000634  -0.001677 -59.799900   0.000739   0.007399 -84.417300  -4.969100   0.483274 -84.438200   0.001650  -0.000945 -63.328600   0.000618   0.000309 -88.985100  -9.997330   0.176933 -110.000000  -0.004907   0.000536 -80.000000  -0.002528  -0.002929   3.463100  -2.447550   3.342930  34.938200 -32.601100  19.275600 -28.221300 -36.385100  80.378500  16.816300 -24.880800  30.703600 -25.573900  37.054400  64.954700  63.789700   0.001227  -0.001998  35.823900   0.003865   0.004212  88.996200   4.998990   0.087474  94.127600  -0.000465   0.003449  70.595700   0.002872   0.000332  89.000000   0.000883  -0.000040  99.543800  -0.002121  -0.006817  74.657800  -0.001909   0.002967  88.996200  -5.002980  -0.089671  91.197700   0.001223   0.002280  68.398300   0.000458  -0.000938  88.983700 -10.011100  -0.181000 110.000000  -0.006203  -0.000857  80.000000  -0.000100   0.002130   4.636240  13.851200   1.186100   0.746649   1.021550  12.952200  -4.639130  -4.149460   1.864750  -0.000000   0.000000   0.000000   2.529270  13.019200  -2.258170   0.385080   0.805163 -13.640800  -1.011070  -3.831700   0.862129  -0.000000   0.000000   0.000000
 -3.819970  89.293200  -8.921520  -2.413490  -9.797070  -2.914900   1.489940   4.605730  -0.280826   3.017270   9.202500  -0.685493   2.029610   0.678980  -0.025704   3.343570   1.371370  10.289400  -3.705840   4.097940  -3.040120 -56.015700 -46.245900 -36.014300  -3.556830 -21.732600 -106.529000 -26.642900 -38.145100 -23.892300  60.561000  62.694800 -99.234600 -52.038900  -0.001021  -0.001314 -27.997900  -0.001593  -0.004454 -88.971000   4.999270  -0.088781 -72.797000   0.000487  -0.000328 -54.597700   0.000098   0.005173 -79.734300   0.000255   0.002150 -79.734300   0.000598  -0.001612 -59.800700   0.000721   0.007417 -84.395400  -4.968670   0.483294 -84.416100   0.001631  -0.000971 -63.312000   0.000662   0.000295 -88.985100  -9.997140   0.177585 -110.000000  -0.004832   0.000532 -80.000000  -0.002467  -0.002937   3.467930  -2.455990   3.328000  34.934400 -32.585900  19.183300 -28.401200 -36.442200  80.422300  16.808600 -24.931800  30.726500 -25.410900  36.822500  64.735800  64.017800   0.001346  -0.002352  35.975800   0.003983   0.004145  88.996200   4.999000   0.087471  94.134800  -0.000534   0.003366  70.601100   0.002828   0.000372  89.000000   0.000920   0.000000  99.491200  -0.002103  -0.006932  74.618300  -0.001908   0.002845  88.996100  -5.003030  -0.089869  91.148500   0.001287   0.002408  68.361300   0.000431  -0.000989  88.983700 -10.011100  -0.181120 110.000000  -0.006223  -0.000893  80.000000  -0.000123   0.002130   4.658840  13.816900   1.169260   0.767927   1.034990  12.958100  -4.674830  -4.146060   1.851810  -0.000000   0.000000   0.000000   2.556570  12.998100  -2.276650   0.400940   0.791694 -13.638000  -1.041870  -3.831650   0.860689   0.000000   0.000000   0.000000
